<?xml version="1.0" encoding="utf-8"?>
<svg width="%" height="%" viewBox="" version="1.1" id="Layer_1" xmlns="http://www.w3.org/2000/svg" xmlns:xlink="http://www.w3.org/1999/xlink">
<g xmlns="http://www.w3.org/2000/svg" fill="#f0e6ff" fill-rule="nonzero" id="background_full">
                <rect height="350" id="Rectangle" width="352" x="0" y="0" />
            </g>
            <g xmlns="http://www.w3.org/2000/svg" id="avatar_kdlflksfklsf">
                <circle cx="176.5" cy="176.5" fill="#096C80" fill-rule="nonzero" id="Oval" r="170.5" />
                <g fill="#064855" fill-rule="nonzero" id="Group" transform="translate(29.000000, 176.000000)">
                    <path d="M236.684425,17.2688205 L234.65871,17.2688205 C234.996673,17.2791282 235.331201,17.3045538 235.671224,17.3045538 C236.011248,17.3045538 236.346463,17.2798154 236.684425,17.2688205 Z" id="Path" />
                    <path d="M59.3412897,17.2688205 L57.3155748,17.2688205 C57.6535374,17.2791282 57.9880654,17.3045538 58.3287757,17.3045538 C58.669486,17.3045538 59.004014,17.2798154 59.3412897,17.2688205 Z" id="Path" />
                    <path d="M265.245701,0 C258.722061,10.176441 248.397715,16.8991179 236.684425,17.2688205 C236.347836,17.2791282 236.012621,17.3045538 235.671911,17.3045538 C235.331201,17.3045538 234.995986,17.2798154 234.65871,17.2688205 C222.946107,16.8991179 212.632065,10.1757538 206.128346,0 C199.604706,10.176441 189.279673,16.8991179 177.56707,17.2688205 C177.239411,17.2791282 176.904883,17.3045538 176.564173,17.3045538 C176.213846,17.3045538 175.878631,17.2798154 175.540668,17.2688205 C163.828065,16.8991179 153.514023,10.1757538 147.010304,0 C140.486664,10.176441 130.171935,16.8991179 118.449715,17.2688205 C118.121369,17.2791282 117.786841,17.3045538 117.446131,17.3045538 C117.095804,17.3045538 116.760589,17.2798154 116.422626,17.2688205 C104.71964,16.8991179 94.3946075,10.1757538 87.8922617,0 C81.3686215,10.176441 71.0538925,16.8991179 59.3406028,17.2688205 C59.0033271,17.2791282 58.6687991,17.3045538 58.3280888,17.3045538 C57.9866916,17.3045538 57.6514766,17.2798154 57.313514,17.2688205 C45.6015981,16.8991179 35.2765654,10.1757538 28.7742196,0 C22.2601963,10.176441 11.9358505,16.8984308 0.223934579,17.2688205 C6.24956075,68.8395795 38.9055421,112.388892 84.0276729,133.740246 C84.0276729,133.733374 210.701145,133.385662 210.701145,133.385662 C255.443411,111.91199 287.782724,68.5605846 293.774692,17.2695077 C282.062776,16.8984308 271.739117,10.176441 265.245701,0 Z" id="Path" />
                    <path d="M177.566383,17.2688205 L175.549598,17.2688205 C175.886187,17.2791282 176.219341,17.3038667 176.557991,17.3038667 C176.89664,17.3038667 177.230481,17.2798154 177.566383,17.2688205 Z" id="Path" />
                    <path d="M118.450402,17.2688205 L116.433617,17.2688205 C116.769519,17.2791282 117.10336,17.3038667 117.441322,17.3038667 C117.779285,17.3038667 118.113126,17.2798154 118.450402,17.2688205 Z" id="Path" />
                </g>
                <polygon fill="#FFFFFF" fill-rule="nonzero" id="Path" points="199 48.1426136 176.5 37 154 48.1426136 154 74.1429546 176.5 89 199 74.1429546" />
                <rect fill="#FFD170" fill-rule="nonzero" height="37" id="Rectangle" width="45" x="154" y="74" />
                <g fill="#FFFFFF" fill-rule="nonzero" id="Group" transform="translate(138.000000, 96.000000)">
                    <polygon id="Path" points="68.1056727 0.363 7.89432727 0.363 5.53349091 46.858625 38 61.837875 70.4665091 46.858625" />
                    <polyline id="Path" points="0.111927273 153.668625 75.8880727 153.668625 72.8266545 93.355625 38 78.3770625 3.17334545 93.355625" />
                </g>
                <polygon fill="#FF7066" fill-rule="nonzero" id="Path" points="208.661991 143 144.338009 143 142 189 211 189" />
                <path d="M176.121641,324 C198.996031,324 220.657882,318.808656 240,309.544845 L239.975901,309.507641 L235.952691,236 L116.93783,236 L113,309.850745 L113,309.898973 C132.150012,318.937492 153.543327,324 176.121641,324 Z" fill="#FFD170" fill-rule="nonzero" id="Path" />
                <g id="Group" stroke="#FFE1A0" stroke-linecap="round" stroke-linejoin="round" stroke-width="15" transform="translate(101.000000, 45.000000)">
                    <path d="M22.5309633,28.8943571 L0.0440366972,28.8943571" id="Path" />
                    <path d="M22.5309633,50.7071905 L5.74816514,57.6803095" id="Path" />
                    <path d="M22.5309633,7.08083333 L5.74816514,0.109785714" id="Path" />
                    <path d="M127.469037,28.8943571 L149.955963,28.8943571" id="Path" />
                    <path d="M127.469037,50.7071905 L144.251835,57.6803095" id="Path" />
                    <path d="M127.469037,7.08083333 L144.251835,0.109785714" id="Path" />
                </g>
                <g fill="#03242B" fill-rule="nonzero" id="Group">
                    <path d="M300.450562,51.5494375 C267.208562,18.30675 223.01125,0 176,0 C128.98875,0 84.79075,18.30675 51.5494375,51.5494375 C18.30675,84.7914375 0,128.98875 0,176 C0,223.01125 18.30675,267.208563 51.5494375,300.450562 C84.79075,333.69325 128.98875,352 176,352 C223.01125,352 267.208563,333.69325 300.450562,300.450562 C333.692563,267.207875 352,223.01125 352,176 C352,128.98875 333.69325,84.7914375 300.450562,51.5494375 Z M176,340.76625 C85.1475625,340.76625 11.23375,266.853125 11.23375,176 C11.23375,85.146875 85.1475625,11.23375 176,11.23375 C266.852438,11.23375 340.76625,85.1475625 340.76625,176 C340.76625,266.852438 266.852438,340.76625 176,340.76625 Z" id="Shape" />
                    <path d="M327.154438,189.610438 C326.128,188.419 324.649188,187.713625 323.07825,187.663438 C313.5935,187.363688 304.847125,182.010125 299.08175,172.978438 C298.049813,171.362125 296.264375,170.383125 294.346938,170.383125 C292.4295,170.383125 290.644063,171.362125 289.612813,172.97775 C283.6405,182.331187 274.578563,187.69575 264.748,187.69575 C254.94425,187.69575 245.89125,182.3305 239.912063,172.975687 C238.880125,171.361437 237.09675,170.3845 235.182063,170.383125 C233.264625,170.383125 231.482625,171.359375 230.449313,172.971563 C229.793438,173.996625 229.053,175.027187 228.250688,176.03575 C226.317438,178.46125 226.717563,181.995688 229.144438,183.928938 C230.784125,185.2345 232.929813,185.475813 234.743438,184.747063 C242.641438,193.732 253.455125,198.930875 264.748688,198.930875 C275.8525,198.930875 286.48125,193.92725 294.33525,185.252375 C300.431313,192.041438 308.132,196.532188 316.556625,198.1925 C312.030125,226.784938 298.576438,253.798188 278.309625,274.7855 C276.155,277.016438 276.216875,280.573563 278.449188,282.728188 C279.539563,283.78075 280.9455,284.303938 282.350063,284.303938 C283.820625,284.303938 285.289813,283.729188 286.391188,282.588625 C309.667875,258.484188 324.6155,226.998063 328.479938,193.929313 C328.662125,192.367313 328.181563,190.801187 327.154438,189.610438 Z" id="Path" />
                    <path d="M262.159563,289.161125 C256.628625,293.38375 250.859813,297.162938 244.89025,300.491813 L241.347563,235.794625 C241.184625,232.816375 238.721313,230.484375 235.738938,230.484375 L218.343125,230.484375 L211.566438,96.3290625 C211.415875,93.3405 208.949125,90.9954375 205.957125,90.9954375 L204.085063,90.9954375 L204.085063,79.7616875 L205.957125,79.7616875 C209.059813,79.7616875 211.574,77.2475 211.574,74.1448125 C211.574,71.042125 209.059813,68.5279375 205.957125,68.5279375 L204.085063,68.5279375 L204.085063,56.97175 C204.697625,57.1896875 205.32875,57.2955625 205.953,57.2955625 C208.013438,57.2955625 209.997563,56.1570625 210.981375,54.1894375 C212.369438,51.4146875 211.244,48.0404375 208.46925,46.6530625 L178.512125,31.6745 C176.930875,30.8831875 175.069125,30.8831875 173.488563,31.6745 L143.531438,46.6530625 C140.756688,48.041125 139.631938,51.414 141.019313,54.1894375 C142.3015,56.7538125 145.27975,57.904 147.915625,56.9683125 L147.915625,68.5279375 L146.042875,68.5279375 C142.940875,68.5279375 140.426,71.042125 140.426,74.1448125 C140.426,77.2475 142.940875,79.7616875 146.042875,79.7616875 L147.914938,79.7616875 L147.914938,90.9954375 L146.042875,90.9954375 C143.050875,90.9954375 140.584125,93.3411875 140.433563,96.3290625 L133.656875,230.484375 L116.906625,230.484375 C113.920813,230.484375 111.456813,232.8205 111.298,235.802875 L107.823375,300.920813 C70.05075,280.286188 42.4538125,242.966625 35.4399375,198.194563 C43.8769375,196.53425 51.5879375,192.042125 57.6888125,185.249625 C65.5455625,193.925187 76.1674375,198.930188 87.2540625,198.930188 C98.5538125,198.930188 109.376438,193.727875 117.283375,184.735375 C119.090813,185.450375 121.220688,185.210438 122.852813,183.913125 C125.282438,181.984 125.687375,178.45025 123.757563,176.020625 C122.961438,175.017562 122.2265,173.993188 121.575438,172.975 C120.5435,171.36075 118.760125,170.3845 116.845438,170.383812 C114.928688,170.383812 113.146,171.359375 112.112688,172.97225 C106.121125,182.329125 97.06125,187.696437 87.25475,187.696437 C77.4455,187.696437 68.38975,182.331187 62.4085,172.975 C61.3765625,171.36075 59.5918125,170.383812 57.67575,170.383812 C55.7569375,170.3845 53.972875,171.362812 52.9409375,172.979125 C47.174875,182.0115 38.42025,187.363687 28.9224375,187.664125 C27.3515,187.713625 25.872,188.419687 24.84625,189.611125 C23.819125,190.801875 23.33925,192.368687 23.5214375,193.930687 C27.85475,231.006875 45.648625,265.239562 73.6264375,290.322313 C84.717875,300.267 97.075,308.444813 110.281875,314.718938 C110.466813,314.820688 110.657938,314.912125 110.85525,314.99325 C131.075313,324.4945 153.272625,329.531125 176,329.531125 C209.88275,329.531125 242.033688,318.658313 268.976813,298.089 C271.442875,296.206625 271.915875,292.681813 270.032813,290.216438 C268.150438,287.751063 264.625625,287.276 262.159563,289.161125 Z M151.383375,102.229875 L200.616625,102.229875 L202.39725,137.49175 L149.600688,137.49175 L151.383375,102.229875 Z M159.148688,51.403 L176,42.9776875 L192.851313,51.403 L192.851313,68.52725 L159.149375,68.52725 L159.149375,51.403 L159.148688,51.403 Z M159.148687,79.7616875 L192.850625,79.7616875 L192.850625,90.9954375 L159.148687,90.9954375 L159.148687,79.7616875 L159.148687,79.7616875 Z M146.685,195.2225 L188.186625,195.223188 C191.288625,195.223188 193.8035,192.708313 193.8035,189.606313 C193.8035,186.504312 191.289313,183.989437 188.186625,183.989437 L147.252875,183.98875 L149.034188,148.726875 L202.965813,148.726875 L207.096313,230.48575 L144.904375,230.48575 L146.685,195.2225 Z M118.785563,306.310125 L122.232,241.718813 L230.4225,241.718813 L233.941125,305.98425 C215.873625,314.09125 196.272313,318.297375 176.000688,318.297375 C155.722875,318.297375 136.351188,314.028 118.785563,306.310125 Z" id="Shape" />
                    <circle cx="171.8805" cy="292.45975" id="Oval" r="5.616875" />
                    <circle cx="149.413" cy="269.991562" id="Oval" r="5.616875" />
                </g>
            </g>
            
</svg>
