<svg id="Layer_1" data-name="Layer 1" xmlns="http://www.w3.org/2000/svg" viewBox="0 0 137.1 46.16"><defs><style>.cls-1,.cls-2{fill:#1d2a4b;}.cls-2{font-size:12.14px;font-family:Stellar-Light, Stellar;}.cls-3{letter-spacing:-0.03em;}.cls-4{letter-spacing:-0.02em;}.cls-5{letter-spacing:-0.01em;}.cls-6{letter-spacing:-0.01em;}.cls-7{letter-spacing:-0.03em;}.cls-8{letter-spacing:0em;}</style></defs><title>blue-website-logo</title><path class="cls-1" d="M70.62,27.73V26.17l11.06-13a6.61,6.61,0,0,0,1.18-1.85,5.3,5.3,0,0,0,.37-2A4.74,4.74,0,0,0,81.83,5.8a5.38,5.38,0,0,0-3.91-1.35,7.41,7.41,0,0,0-2,.28,4.48,4.48,0,0,0-1.68.88,4.33,4.33,0,0,0-1.14,1.54,5.31,5.31,0,0,0-.43,2.21h-2a6.45,6.45,0,0,1,.5-2.56,6,6,0,0,1,1.43-2,6.73,6.73,0,0,1,2.28-1.37,8.74,8.74,0,0,1,3.06-.5,9,9,0,0,1,3,.47A6.7,6.7,0,0,1,83.2,4.67a5.85,5.85,0,0,1,1.47,2,6.54,6.54,0,0,1,.52,2.65,6.63,6.63,0,0,1-.43,2.46A8.28,8.28,0,0,1,83.3,14.1L73,26.17H85.19v1.56Z" transform="translate(0 -1.67)"/><path class="cls-1" d="M105.09,21.45a9.41,9.41,0,0,1-.27,1.71,7,7,0,0,1-.64,1.61A5.43,5.43,0,0,1,103,26.21,7.65,7.65,0,0,1,97.72,28a10.4,10.4,0,0,1-3.05-.42,5.66,5.66,0,0,1-2.24-1.25,5.86,5.86,0,0,1-1.86-4h2a4.91,4.91,0,0,0,1.53,3,5.39,5.39,0,0,0,3.65,1.07,6.79,6.79,0,0,0,2.13-.33,4.6,4.6,0,0,0,1.66-.92,4.08,4.08,0,0,0,.95-1.21,5.78,5.78,0,0,0,.48-1.38,9.43,9.43,0,0,0,.19-1.47q0-.74,0-1.44a15.82,15.82,0,0,0-.17-2.32,6.06,6.06,0,0,0-.72-2.13,4.15,4.15,0,0,0-1.55-1.54A5.35,5.35,0,0,0,98,13.1a7.09,7.09,0,0,0-3.23.67A3.34,3.34,0,0,0,93,15.69H91.3V3.1h13.23V4.65H93v8.72a7,7,0,0,1,5.22-1.83A6.72,6.72,0,0,1,102.91,13a5.66,5.66,0,0,1,1.18,1.45,7.27,7.27,0,0,1,.68,1.66,10.22,10.22,0,0,1,.31,1.76q.08.9.08,1.76T105.09,21.45Z" transform="translate(0 -1.67)"/><path class="cls-1" d="M124.43,23.56A6.53,6.53,0,0,1,123,25.83a6.74,6.74,0,0,1-2.28,1.54,7.9,7.9,0,0,1-3.09.57,8.6,8.6,0,0,1-3.09-.52,6.71,6.71,0,0,1-2.3-1.44,5.94,5.94,0,0,1-1.43-2.18,7.72,7.72,0,0,1-.48-2.79,8.56,8.56,0,0,1,.35-2.4,14.18,14.18,0,0,1,1.2-2.75L119,3.1h2l-6.34,11.38a8.19,8.19,0,0,1,3.21-.59,7.94,7.94,0,0,1,3,.54,6.33,6.33,0,0,1,3.62,3.65,7.4,7.4,0,0,1,.48,2.7A7.92,7.92,0,0,1,124.43,23.56Zm-1.84-4.74a5.39,5.39,0,0,0-1-1.75,4.53,4.53,0,0,0-1.66-1.19,5.84,5.84,0,0,0-2.32-.43,5.11,5.11,0,0,0-3.87,1.49,5.5,5.5,0,0,0-1.43,4,5.5,5.5,0,0,0,1.43,4,5.11,5.11,0,0,0,3.87,1.49,5.18,5.18,0,0,0,3.89-1.49,5.46,5.46,0,0,0,1.45-4A6.24,6.24,0,0,0,122.59,18.82Z" transform="translate(0 -1.67)"/><path class="cls-1" d="M15.55,22c0,1.94,1.31,3.46,4.29,3.46s3.52-1.9,3.52-2.84c0-2-2.13-2.66-4.37-3.32-2.78-.76-6-1.8-6-5.61,0-1.49,1.28-5.19,6.61-5.19S26,12.44,26,14.27h-2.9A3.25,3.25,0,0,0,19.57,11c-2.2,0-3.71,1.21-3.71,2.77,0,2.11,2.2,2.77,4.45,3.39,2.78.76,6,1.9,6,5.54,0,2.28-1.74,5.26-6.46,5.26-6.65,0-7.19-5.05-7.19-5.88Z" transform="translate(0 -1.67)"/><path class="cls-1" d="M19.85,28.36c-6.05,0-7.65-4.15-7.65-6.34v-.46H16V22c0,1.91,1.4,3,3.83,3,2.66,0,3.06-1.49,3.06-2.38,0-1.58-1.53-2.14-4-2.88s-6.37-1.74-6.37-6c0-1.47,1.3-5.65,7.07-5.65,5.47,0,6.92,4.06,6.92,6.2v.46H22.67v-.46a2.8,2.8,0,0,0-3.1-2.86c-1.88,0-3.25,1-3.25,2.31,0,1.68,1.7,2.28,4.11,2.95,2.21.6,6.33,1.73,6.33,6C26.77,25.4,24.6,28.36,19.85,28.36Zm-6.7-5.88c.16,1.32,1.12,5,6.7,5,4.73,0,6-3,6-4.8,0-3.27-2.92-4.35-5.66-5.09-2.13-.59-4.79-1.33-4.79-3.83,0-1.87,1.76-3.23,4.17-3.23a3.7,3.7,0,0,1,4,3.32h2c-.19-1.89-1.6-4.83-6-4.83-6,0-6.15,4.68-6.15,4.73,0,3.33,2.69,4.34,5.69,5.16,2.32.68,4.71,1.38,4.71,3.76,0,.77-.29,3.3-4,3.3-2.17,0-4.49-.92-4.73-3.46Z" transform="translate(0 -1.67)"/><path class="cls-1" d="M30.71,2.13h2.9V10.4c1-1.18,2.48-1.87,4.91-1.87,5.49,0,7.15,2.63,7.15,8.37V27.73h-2.9V17.21C42.78,13,42,11,38.52,11c-2.78,0-4.91,1.31-4.91,6.26V27.73h-2.9Z" transform="translate(0 -1.67)"/><path class="cls-1" d="M46.14,28.19H42.32v-11c0-4.45-.89-5.8-3.79-5.8-2.07,0-4.45.66-4.45,5.8v11H30.25V1.67h3.82V9.34a7,7,0,0,1,4.45-1.26c6.32,0,7.62,3.53,7.62,8.83Zm-2.9-.92h2V16.9c0-5.84-1.75-7.91-6.69-7.91A5.6,5.6,0,0,0,34,10.7l-.81.91v-9h-2V27.27h2V17.21c0-4.52,1.76-6.72,5.37-6.72,3.94,0,4.72,2.46,4.72,6.72Z" transform="translate(0 -1.67)"/><path class="cls-1" d="M65.71,21.23c0,3.81-2.44,6.68-7.23,6.68-6.07,0-7.54-4.29-7.54-9.69,0-5.57,1.86-9.69,7.54-9.69s7.43,4.15,7.43,8.34v1.94H53.84c0,4.43,1.12,6.68,4.64,6.68,3.25,0,4.37-2,4.37-4.26ZM53.88,16.42h9.2C63,13.06,61.65,11,58.48,11S54,13.13,53.88,16.42Z" transform="translate(0 -1.67)"/><path class="cls-1" d="M58.48,28.36c-7.17,0-8-5.79-8-10.15,0-6.73,2.69-10.15,8-10.15,5,0,7.89,3.21,7.89,8.8v2.4H54.31c.11,4.19,1.27,5.76,4.17,5.76,3.4,0,3.91-2.38,3.91-3.8v-.46h3.78v.46C66.17,25.63,63.22,28.36,58.48,28.36ZM58.48,9c-4.76,0-7.08,3-7.08,9.23,0,6.38,2.18,9.23,7.08,9.23,4.07,0,6.56-2.14,6.76-5.76H63.29c-.18,2.68-2,4.26-4.82,4.26-4.43,0-5.07-3.43-5.1-7.13v-.46H65.44V16.87C65.44,13.93,64.54,9,58.48,9Zm5.08,7.89H53.4v-.47c.06-2.7,1-5.91,5.06-5.91,3.22,0,4.93,2,5.06,5.91ZM54.36,16h8.24c-.34-4.55-3.17-4.55-4.11-4.55C55.9,11.41,54.55,12.9,54.36,16Z" transform="translate(0 -1.67)"/><text class="cls-2" transform="translate(0 43.07) scale(1.21 1)">di<tspan class="cls-3" x="9.24" y="0">v</tspan><tspan x="14.45" y="0">e</tspan><tspan class="cls-4" x="20.68" y="0">r</tspan><tspan x="24.74" y="0">s</tspan><tspan class="cls-5" x="30.41" y="0">i</tspan><tspan x="33" y="0">ty in </tspan><tspan class="cls-6" x="58.28" y="0">b</tspan><tspan x="64.44" y="0">loc</tspan><tspan class="cls-7" x="79.85" y="0">kc</tspan><tspan class="cls-8" x="91.08" y="0">hain</tspan></text></svg>